# xmcd CD database file
#
# Track frame offsets:
#	150
#	14952
#	27347
#	48056
#	67633
#	82609
#	103221
#	117497
#	127559
#	150107
#	162554
#	175712
#	190552
#	210568
#	226707
#	241404
#	256770
#	273230
#	283744
#	298738
#	314195
#
# Disc length: 4509 seconds
#
# Revision: 0
# Processed by: cddbd v1.5.2PL0 Copyright (c) Steve Scherf et al.
# Submitted via: CDex 1.70beta2
#
DISCID=12119b15
DTITLE=John Prine - Great Days - The John Prine Anthology
DYEAR=1900
DGENRE=Blues
TTITLE0=Illegal Smile
TTITLE1=Spanish Pipedream
TTITLE2=Hello In There
TTITLE3=Sam Stone
TTITLE4=Paradise 
TTITLE5=Donald And Lydia
TTITLE6=The Late John Garfield Blues
TTITLE7=Yes I Guess They Oughta Name A Drink After You
TTITLE8=The Great Compromise
TTITLE9=Sweet Revenge
TTITLE10=Please Don't Bury Me
TTITLE11=Christmas In Prison
TTITLE12=Dear Abby (Live)
TTITLE13=Blue Umbrella
TTITLE14=Common Sense
TTITLE15=Come Back To Us Barbara Lewis Hare Krishna Beauregard 	
TTITLE16=Saddle In The Rain
TTITLE17=He Was In Heaven Before He Died
TTITLE18=Fish And Whistle
TTITLE19=That's The Way That The World Goes 'Round
TTITLE20=Bruised Orange (Chain Of Sorrow)
EXTD=
EXTT0=
EXTT1=
EXTT2=
EXTT3=
EXTT4=
EXTT5=
EXTT6=
EXTT7=
EXTT8=
EXTT9=
EXTT10=
EXTT11=
EXTT12=
EXTT13=
EXTT14=
EXTT15=
EXTT16=
EXTT17=
EXTT18=
EXTT19=
EXTT20=
PLAYORDER=
